<?xml version="1.0" encoding="UTF-8"?>
<svg id="Capa_1" xmlns="http://www.w3.org/2000/svg" version="1.1" viewBox="0 0 1386.0248963 239.6016598">
  <!-- Generator: Adobe Illustrator 29.5.1, SVG Export Plug-In . SVG Version: 2.1.0 Build 141)  -->
  <defs>
    <style>
      .st0 {
        fill: #fff;
      }

      .st1 {
        fill: #afde41;
      }

      .st2 {
        fill: #1c1d20;
      }
    </style>
  </defs>
  <g>
    <path class="st0" d="M377.128116,165.1799019c-7.777832,0-13.7875977-1.0605469-18.2661133-2.9462891-8.9560547-4.1245117-12.3735352-13.0805664-12.3735352-28.9892578v-22.8618164h-18.265625v-11.7841797h3.7709961c3.1816406-.1181641,6.4814453-.2358398,8.0131836-.3535156,5.4208984-.5893555,6.3637695-1.7675781,7.3066406-6.2456055.824707-3.6533203.9428711-8.7207031.9428711-12.8452148h12.1376953v18.7373047h29.5786133v12.4912109h-29.5786133v20.6225586c0,6.1279297.5893555,10.605957,1.6499023,13.7880859,2.3569336,6.0097656,7.7773438,7.5419922,18.6191406,7.5419922h9.3095703v12.8447266h-12.8447266Z"/>
    <path class="st0" d="M403.5275301,77.150605c0-6.8349609,3.2998047-9.3095703,9.6630859-9.3095703,6.4814453,0,9.78125,2.4746094,9.78125,9.3095703,0,6.3637695-3.1816406,9.4277344-9.6630859,9.4277344-6.953125,0-9.78125-2.5927734-9.78125-9.4277344ZM405.4132722,97.8913277h15.0839844v67.2885742h-15.0839844v-67.2885742Z"/>
    <path class="st0" d="M480.0099519,167.4191597c-10.2524414,0-18.3837891-1.4145508-24.8647461-4.2426758-12.9628906-5.8920898-18.7373047-16.3803711-18.7373047-30.7573242,0-7.3061523,1.8852539-13.5517578,5.3027344-19.2084961,7.0708008-11.1948242,20.7407227-17.9121094,39.4780273-17.9121094,9.1914062,0,16.9692383,1.4140625,23.5683594,4.3603516,13.0805664,5.8920898,20.1513672,16.4980469,20.1513672,31.3461914v5.8925781h-74.5952148c1.8857422,12.6088867,11.6665039,18.9726562,30.8754883,18.9726562,14.3764648,0,22.1542969-3.1816406,26.2788086-9.78125h16.2626953c-7.3066406,15.7910156-22.2724609,21.3300781-43.7202148,21.3300781ZM450.5490144,126.1735542h59.9824219c-1.8852539-13.0805664-11.4306641-19.4438477-28.9892578-19.4438477-17.559082,0-28.5185547,6.5991211-30.9931641,19.4438477Z"/>
    <path class="st0" d="M540.3532137,165.1799019v-67.2885742h12.8447266l1.2963867,16.9692383c5.1850586-12.0200195,16.6162109-19.5620117,32.878418-19.5620117,7.777832,0,14.0234375,1.4140625,19.2084961,4.2426758,10.3701172,5.65625,15.7910156,16.1445312,15.7910156,29.6962891v35.9423828h-14.7304688v-32.7607422c0-5.0668945-.7070312-9.5449219-2.4746094-13.315918-3.1816406-7.5419922-10.1347656-11.9023438-22.2724609-11.9023438-18.0302734,0-27.6933594,10.0166016-27.6933594,28.2822266v29.6967773h-14.8481445Z"/>
    <path class="st0" d="M678.2360262,167.1833199c-7.8955078,0-14.8476562-1.2963867-20.9755859-3.6533203-12.1386719-5.0673828-19.4443359-15.2016602-19.4443359-31.5820312,0-7.8955078,1.7675781-14.3769531,5.0673828-19.7978516,6.9521484-11.0771484,19.4443359-16.7338867,35.7060547-16.7338867,14.9667969,0,26.6328125,5.3032227,32.7607422,15.5556641v-35.1176758h14.3769531v89.3256836h-12.609375l-1.1777344-14.4946289c-5.4208984,10.605957-16.8525391,16.4980469-33.7041016,16.4980469ZM712.1754793,131.7121285c0-15.7910156-11.9023438-24.5112305-30.0498047-24.5112305-18.7373047,0-29.4619141,8.8383789-29.4619141,24.7470703s9.8994141,23.3330078,29.5791016,23.3330078c19.2089844,0,29.9326172-8.2490234,29.9326172-23.5688477Z"/>
    <path class="st0" d="M801.624698,157.1667183c-7.4238281,6.3632812-18.1484375,10.2524414-32.8779297,10.2524414-19.0908203,0-27.9296875-6.5996094-27.9296875-18.7373047v-.1176758c0-7.3066406,3.1816406-12.609375,9.5458984-16.0268555,2.2382812-1.2963867,4.7138672-2.3569336,7.5419922-3.1816406,5.65625-1.7680664,14.2587891-2.9462891,28.6357422-3.7714844,5.8925781-.3535156,10.3701172-.824707,13.6699219-1.2958984,6.5996094-.9428711,9.0742188-2.8286133,9.0742188-6.5996094v-.1176758c0-1.8852539-.7070312-3.6533203-2.1210938-5.4208984-2.7109375-3.4174805-9.0742188-6.0097656-20.9765625-6.0097656-19.9160156,0-27.3398438,4.9492188-28.7539062,15.6733398h-15.0839844c2.2392386-18.2661133,16.4980469-26.5151367,42.6591797-26.5151367,26.0439453,0,38.2998047,7.5419922,38.2998047,25.5722656v44.309082h-12.0205078l-1.4140625-18.5014648c-1.8857422,3.8886719-4.5957031,7.3061523-8.2490234,10.4882812ZM799.5036043,148.7995308c6.4814453-4.9492188,10.0166016-10.9594727,10.0166016-16.8515625v-2.828125c-2.2392578,2.9458008-7.8955078,4.7138672-21.6835938,5.5385742-15.4375.824707-22.6259766,2.1210938-26.75,4.831543-3.1816406,1.8857422-4.7138672,4.5957031-4.7138672,7.8955078v.1176758c0,5.6567383,4.3603516,9.3100586,16.3798828,9.3100586,11.1953125,0,20.2695312-3.0639648,26.7509766-8.0136719Z"/>
    <path class="st0" d="M872.9264558,131.8302925c0-7.777832,1.8857422-14.2592773,5.65625-19.6801758,7.7783203-11.0771484,21.4472656-16.8515625,39.0068359-16.8515625,8.9560547,0,16.6152344,1.4140625,23.4501953,4.2426758,13.5527344,5.65625,21.4482422,16.6157227,21.4482422,32.2890625,0,21.9189453-14.8486328,35.5888672-45.3701172,35.5888672-30.7568359,0-44.1914062-13.1987305-44.1914062-35.5888672ZM947.5211824,131.8302925c0-16.1445312-10.9589844-24.6293945-29.6962891-24.6293945-18.265625,0-29.9326172,8.0131836-29.9326172,24.6293945,0,15.6728516,9.8994141,23.3330078,29.5791016,23.3330078,20.2685547,0,30.0498047-7.6601562,30.0498047-23.3330078Z"/>
    <path class="st0" d="M978.5182527,165.1799019v-67.2885742h12.8457031l1.2958984,16.9692383c5.1855469-12.0200195,16.6162109-19.5620117,32.8789062-19.5620117,7.7773438,0,14.0224609,1.4140625,19.2080078,4.2426758,10.3701172,5.65625,15.7910156,16.1445312,15.7910156,29.6962891v35.9423828h-14.7304688v-32.7607422c0-5.0668945-.7070312-9.5449219-2.4746094-13.315918-3.1816406-7.5419922-10.1347656-11.9023438-22.2724609-11.9023438-18.0302734,0-27.6933594,10.0166016-27.6933594,28.2822266v29.6967773h-14.8486328Z"/>
    <path class="st0" d="M1079.6334871,75.8542183h14.7304688v89.3256836h-14.7304688v-89.3256836Z"/>
    <path class="st0" d="M1112.1588777,77.150605c0-6.8349609,3.2998047-9.3095703,9.6630859-9.3095703,6.4814453,0,9.78125,2.4746094,9.78125,9.3095703,0,6.3637695-3.1816406,9.4277344-9.6630859,9.4277344-6.953125,0-9.78125-2.5927734-9.78125-9.4277344ZM1114.0446199,97.8913277h15.0839844v67.2885742h-15.0839844v-67.2885742Z"/>
    <path class="st0" d="M1149.0455965,165.1799019v-67.2885742h12.8457031l1.2958984,16.9692383c5.1855469-12.0200195,16.6162109-19.5620117,32.8789062-19.5620117,7.7773438,0,14.0224609,1.4140625,19.2080078,4.2426758,10.3701172,5.65625,15.7910156,16.1445312,15.7910156,29.6962891v35.9423828h-14.7304688v-32.7607422c0-5.0668945-.7070312-9.5449219-2.4746094-13.315918-3.1816406-7.5419922-10.1347656-11.9023438-22.2724609-11.9023438-18.0302734,0-27.6933594,10.0166016-27.6933594,28.2822266v29.6967773h-14.8486328Z"/>
    <path class="st0" d="M1290.1110262,167.4191597c-10.2529297,0-18.3837891-1.4145508-24.8652344-4.2426758-12.9628906-5.8920898-18.7373047-16.3803711-18.7373047-30.7573242,0-7.3061523,1.8857422-13.5517578,5.3027344-19.2084961,7.0703125-11.1948242,20.7402344-17.9121094,39.4775391-17.9121094,9.1923828,0,16.9697266,1.4140625,23.5693359,4.3603516,13.0800781,5.8920898,20.1513672,16.4980469,20.1513672,31.3461914v5.8925781h-74.5957031c1.8857422,12.6088867,11.6669922,18.9726562,30.875,18.9726562,14.3769531,0,22.1552734-3.1816406,26.2792969-9.78125h16.2626953c-7.3066406,15.7910156-22.2724609,21.3300781-43.7197266,21.3300781ZM1260.6500887,126.1735542h59.9824219c-1.8857422-13.0805664-11.4316406-19.4438477-28.9902344-19.4438477s-28.5175781,6.5991211-30.9921875,19.4438477Z"/>
  </g>
  <path class="st1" d="M250.1842683,77.8332222v-28.6245117c0-25.203125-20.5039062-45.7070312-45.706543-45.7070312H49.5441316C24.3414949,3.5016792,3.8375887,24.0055855,3.8375887,49.2087105v139.4980469c0,25.2026367,20.5039062,45.7060547,45.706543,45.7060547h154.9335938c25.2026367,0,45.706543-20.503418,45.706543-45.7060547v-37.3652344h-14v37.3652344c0,17.4829102-14.2236328,31.7060547-31.706543,31.7060547H49.5441316c-17.4829102,0-31.706543-14.2231445-31.706543-31.7060547V49.2087105c0-17.4833984,14.2236328-31.7070312,31.706543-31.7070312h154.9335938c17.4829102,0,31.706543,14.2236328,31.706543,31.7070312v28.6245117h14Z"/>
  <path class="st1" d="M90.8830633,166.2471025h-13.9057617v-54.9150391h-18.5014648v-12.3740234h18.5014648v-2.7099609c0-7.3066406.8251953-12.9628906,2.5927734-16.8515625,3.4174805-8.0136719,11.1953125-10.6064453,25.21875-10.6064453h11.7841797v11.6669922h-10.4882812c-3.8886719,0-6.9526367.4707031-9.1914062,1.0605469-4.4785156,1.53125-5.8925781,5.65625-5.8925781,14.6123047v2.828125h25.5722656v12.3740234h-25.5722656l-.1176758,54.9150391Z"/>
  <path class="st1" d="M176.764332,166.2471025c-7.777832,0-13.7875977-1.0605469-18.2661133-2.9462891-8.9560547-4.125-12.3735352-13.0810547-12.3735352-28.9892578v-22.9905124h-18.265625v-12.3630032h3.7709961c3.1816406-.1181641,6.4814453-.2353516,8.0131836-.3535156,5.4208984-.5888672,6.3637695-1.7675781,7.3066406-6.2451172.824707-3.6533203.9428711-8.7207031.9428711-12.8457031h12.1376953v19.4443359h29.5786133v12.3630032h-29.5786133v20.7512546c0,6.1279297.5893555,10.6054688,1.6499023,13.7880859,2.3569336,6.0097656,7.7773438,7.5419922,18.6191406,7.5419922h9.3095703v12.8447266h-12.8447266Z"/>
  <path class="st1" d="M202.2242929,166.2471025v-67.2890625h12.8447266l1.2963867,16.9697266c5.1850586-12.0205078,16.6162109-19.5625,32.878418-19.5625,7.777832,0,14.0234375,1.4140625,19.2084961,4.2431641,10.3701172,5.65625,15.7910156,16.1445312,15.7910156,29.6962891v35.9423828h-14.7304688v-32.7607422c0-5.0673828-.7070312-9.5449219-2.4746094-13.3164062-3.1816406-7.5419922-10.1347656-11.9023438-22.2724609-11.9023438-18.0302734,0-27.6933594,10.0166016-27.6933594,28.2822266v29.6972656h-14.8481445Z"/>
  <circle class="st1" cx="1366.5936461" cy="151.4365443" r="15.9012745"/>
  <rect class="st0" x="328.2228426" y="181.9071654" width="585.7881812" height="52.5056466" rx="13.055273" ry="13.055273"/>
  <g>
    <path class="st2" d="M371.1637605,224.6012886h-4.5141602v-26.3085938h13.2470703c9.4726562,0,13.246582,2.8491211,13.246582,9.1025391,0,5.8833008-4.2182617,8.9545898-12.7285156,8.9174805h-9.2509766v8.2885742ZM371.1637605,212.4274605h9.0288086c5.8461914,0,8.362793-1.2949219,8.362793-5.0693359,0-1.40625-.3334961-2.4423828-.925293-3.1821289-1.2211914-1.4799805-3.7744141-1.9980469-7.7333984-1.9980469h-8.7329102v10.2495117Z"/>
    <path class="st2" d="M403.9088777,218.0148628l-3.293457,6.5864258h-4.9580078l13.6538086-26.3085938h4.7734375l13.8759766,26.3085938h-4.8847656l-3.4038086-6.5864258h-15.7631836ZM405.7960847,214.2404488h11.9516602l-6.0683594-11.7666016-5.8833008,11.7666016Z"/>
    <path class="st2" d="M440.0573152,224.6012886h-4.4404297v-26.3085938h4.6621094l17.5024414,19.019043,1.0361328,1.2949219v-20.3139648h4.4033203v26.3085938h-4.3295898l-17.8349609-19.3891602-.9990234-1.2211914v20.6103516Z"/>
    <path class="st2" d="M473.9860262,224.6012886v-26.3085938h24.7915039v3.8852539h-20.3881836v7.4741211h17.2431641v3.8486328h-17.2431641v7.0673828h21.128418v4.0332031h-25.5317383Z"/>
    <path class="st2" d="M508.2106355,198.2926949h4.6254883v21.9794922h18.4643555v4.3291016h-23.0898438v-26.3085938Z"/>
    <path class="st2" d="M565.8200105,198.2926949c3.2558594,0,6.0683594.4438477,8.5102539,1.3320312,4.8476562,1.7758789,7.6225586,5.550293,7.6225586,11.8037109v.1108398c0,3.1083984-.6289062,5.6245117-1.9238281,7.5488281-2.590332,3.8852539-7.3266602,5.5131836-13.7651367,5.5131836h-12.3588867v-26.3085938h11.9150391ZM558.4191316,220.5680855h7.6225586c2.4794922,0,4.4775391-.2592773,6.1796875-.8510742,3.3671875-1.1469727,5.0693359-3.7001953,5.0693359-8.2514648v-.0742188c0-6.6972656-4.1074219-9.1025391-11.6557617-9.1025391h-7.2158203v18.2792969Z"/>
    <path class="st2" d="M591.2003816,224.6012886v-26.3085938h24.7915039v3.8852539h-20.3881836v7.4741211h17.2431641v3.8486328h-17.2431641v7.0673828h21.128418v4.0332031h-25.5317383Z"/>
    <path class="st2" d="M663.4625887,221.4928902c-1.9238281,2.3681641-5.2539062,3.8115234-10.3603516,3.8115234-2.9599609,0-5.5507812-.5180664-7.7705078-1.4433594-4.4033203-1.9980469-6.9931641-5.8833008-6.9931641-12.0258789v-.1479492c0-2.9599609.6289062-5.5131836,2.0351562-7.5854492,2.7382812-4.1811523,7.6220703-6.4013672,13.7646484-6.4013672,2.7382812,0,5.1064453.3701172,7.2519531.9990234,4.2558594,1.3320312,7.03125,4.1445312,7.9189453,8.7695312h-5.1806641c-.9248047-3.9589844-4.2177734-5.6240234-9.8789062-5.6240234-6.9570312,0-11.1748047,3.1079102-11.1748047,9.9165039v.0371094c0,6.4013672,3.8105469,9.5463867,10.8046875,9.5463867,2.4785156,0,4.5136719-.2958984,6.1054688-.8881836,3.1816406-1.1835938,4.7363281-3.21875,5.0322266-5.5869141h-11.5449219v-3.8115234h15.9482422v13.5429688h-3.8115234l-.2587891-7.1787109c-.2958984,1.5541992-.9619141,2.8862305-1.8876953,4.0703125Z"/>
    <path class="st2" d="M679.4450105,224.6012886v-26.3085938h24.7910156v3.8852539h-20.3876953v7.4741211h17.2431641v3.8486328h-17.2431641v7.0673828h21.1279297v4.0332031h-25.53125Z"/>
    <path class="st2" d="M718.4430574,224.2682808c-4.3662109-1.4433594-6.5126953-4.3291016-7.2529297-8.9545898h4.921875c.8505859,4.5512695,4.2919922,6.03125,10.8789062,6.03125,6.03125,0,8.5839844-1.4057617,8.5839844-4.144043,0-1.0732422-.3330078-1.8500977-1.0361328-2.4052734-1.40625-.9990234-4.4404297-1.2949219-9.953125-1.5913086-2.7382812-.1850586-4.921875-.5180664-6.7714844-.9990234-3.5527344-.9248047-5.3291016-2.8862305-5.3291016-6.4384766,0-4.9213867,4.21875-8.0664062,12.7294922-8.0664062,8.9169922,0,13.7646484,2.8491211,14.8378906,8.9545898h-4.8476562c-.6289062-3.7744141-4.2177734-5.0693359-10.0644531-5.0693359-5.7353516,0-8.0664062,1.4433594-8.0664062,4.0703125,0,.8510742.2587891,1.5170898.8134766,1.9980469,1.0361328.9990234,3.6269531,1.40625,8.7333984,1.7021484,3.1074219.1479492,5.6611328.5180664,7.6591797.9990234,4.0332031.9990234,5.8837891,2.8862305,5.8837891,6.5126953,0,5.3652344-4.1074219,8.4736328-13.2841797,8.4736328-3.4785156,0-6.2539062-.3330078-8.4365234-1.0732422Z"/>
    <path class="st2" d="M760.7711824,224.6012886h-4.6621094v-22.3496094h-10.2128906v-3.9589844h25.5683594v3.9589844h-10.6933594v22.3496094Z"/>
    <path class="st2" d="M779.1959871,220.3459175h7.1044922v-17.9462891h-7.1044922v-4.1069336h18.5751953v4.1069336h-7.1044922v17.9462891h7.1044922v4.2553711h-18.5751953v-4.2553711Z"/>
    <path class="st2" d="M811.7936433,223.8610542c-4.6992188-1.9980469-7.5117188-5.8833008-7.5117188-12.1367188v-.1108398c0-2.9604492.6289062-5.4765625,2.0351562-7.5488281,2.7382812-4.1811523,7.5488281-6.3642578,13.5429688-6.3642578,2.9599609,0,5.6240234.5551758,7.9921875,1.5913086,4.7734375,2.1459961,7.6972656,6.253418,7.6972656,12.284668v.1850586c0,3.0712891-.6660156,5.550293-2.0722656,7.5854492-2.7382812,4.0332031-7.6230469,5.9575195-13.6171875,5.9575195-3.0341797,0-5.6982422-.5180664-8.0664062-1.4433594ZM825.5582918,220.1979683c3.3300781-1.2583008,5.2910156-3.9594727,5.2910156-8.4736328,0-2.3310547-.4433594-4.1811523-1.3691406-5.6245117-1.8496094-2.9228516-5.1425781-4.2548828-9.6201172-4.2548828-6.6972656,0-10.8789062,3.0341797-10.8789062,9.8422852v.0371094c0,2.1459961.4443359,3.8852539,1.3691406,5.2915039,1.8505859,2.8120117,5.1435547,4.144043,9.4726562,4.144043,2.1835938,0,4.1074219-.3330078,5.7353516-.9619141ZM829.7770418,186.1554878l-8.0673828,8.2514648h-3.8105469l6.7714844-8.2514648h5.1064453Z"/>
    <path class="st2" d="M849.2731355,224.6012886h-4.4394531v-26.3085938h4.6621094l17.5019531,19.019043,1.0361328,1.2949219v-20.3139648h4.4033203v26.3085938h-4.3291016l-17.8359375-19.3891602-.9990234-1.2211914v20.6103516Z"/>
  </g>
</svg>